<?xml version="1.0" encoding="iso-8859-1"?>
<!-- Generator: Adobe Illustrator 19.0.0, SVG Export Plug-In . SVG Version: 6.00 Build 0)  -->
<svg version="1.1" id="Layer_1" xmlns="http://www.w3.org/2000/svg" xmlns:xlink="http://www.w3.org/1999/xlink" x="0px" y="0px"
	 viewBox="0 0 203.219 203.219" style="enable-background:new 0 0 203.219 203.219;" xml:space="preserve">
<g>
	<g>
		<g>
			<rect x="50.074" y="195.829" width="70.203" height="7.39"/>
			<path d="M175.268,99.455c-0.159-1.914-1.757-3.388-3.681-3.388h-32.836v-14.78h3.695v-7.39h-7.39H35.294h-7.39v7.39h3.695v83.644
				c0,15,12.207,27.203,27.21,27.203h52.732c15.003,0,27.21-12.203,27.21-27.203v-18.702c0.154-0.042,0.31-0.031,0.462-0.094
				C177.368,130.098,175.372,100.698,175.268,99.455z M111.541,184.744H58.809c-10.93,0-19.821-8.889-19.821-19.813V81.287h92.373
				v83.644h0.001C131.362,175.855,122.471,184.744,111.541,184.744z M138.752,138.221v-34.764h29.018
				C166.998,110.568,162.525,127.27,138.752,138.221z"/>
			<rect x="50.074" y="92.372" width="7.39" height="59.25"/>
			<path d="M69.237,63.729c-1.725,1.088-2.244,3.368-1.155,5.095c0.7,1.117,1.901,1.727,3.128,1.727
				c0.671,0,1.353-0.184,1.966-0.568c0.646-0.408,15.703-10.282,2.638-36.298c-3.525-7.024-4.449-13.125-2.742-18.135
				c1.999-5.876,7.123-8.445,7.263-8.514c1.837-0.866,2.63-3.053,1.775-4.897c-0.855-1.847-3.045-2.652-4.907-1.797
				c-0.325,0.151-7.978,3.787-11.074,12.671c-2.439,6.991-1.4,15.061,3.082,23.988C79.124,56.736,69.602,63.484,69.237,63.729z"/>
			<path d="M95.78,55.004c-1.728,1.086-2.248,3.368-1.162,5.095c0.704,1.115,1.905,1.727,3.132,1.727
				c0.671,0,1.353-0.184,1.963-0.568c0.501-0.314,12.149-7.944,2.281-27.593c-2.418-4.815-3.071-8.956-1.941-12.308
				c1.295-3.846,4.554-5.506,4.745-5.602c1.829-0.868,2.623-3.051,1.768-4.893c-0.855-1.849-3.042-2.652-4.907-1.797
				c-0.628,0.292-6.21,3.044-8.552,9.762c-1.858,5.33-1.09,11.437,2.284,18.153C102.113,50.366,95.975,54.863,95.78,55.004z"/>
		</g>
	</g>
</g>
<g>
</g>
<g>
</g>
<g>
</g>
<g>
</g>
<g>
</g>
<g>
</g>
<g>
</g>
<g>
</g>
<g>
</g>
<g>
</g>
<g>
</g>
<g>
</g>
<g>
</g>
<g>
</g>
<g>
</g>
</svg>
